<svg xmlns="http://www.w3.org/2000/svg" fill="none" viewBox="0 0 24 28" width="27" height="27"><path fill="#fff" d="M16.17 2.41a5.17 5.17 0 0 1-2.55 2.89 4.8 4.8 0 0 1 2.55-2.89Zm1.05 5.83h.19a5.6 5.6 0 0 1 3.17 1.14 6.97 6.97 0 0 0-2.3 5.85 7.29 7.29 0 0 0 3.35 5.54 13.54 13.54 0 0 1-2.29 3.74l-.7.69a2.07 2.07 0 0 1-1.51.65 4.02 4.02 0 0 1-1.62-.42 7.7 7.7 0 0 0-2.92-.6c-1 0-2 .21-2.93.62-.5.22-1.04.35-1.59.38a2.06 2.06 0 0 1-1.44-.69c-4.49-4.6-5.16-10.07-3.89-13.25a5.3 5.3 0 0 1 4.97-3.57c.84.09 1.67.3 2.44.63.65.27 1.33.45 2.03.54h.36c.7-.15 1.37-.35 2.04-.6a8.46 8.46 0 0 1 2.67-.62l-.03-.03Zm.44-7.59a6.1 6.1 0 0 0-5.59 6.26h.39a6.02 6.02 0 0 0 5.2-6.26Zm-.44 6.27c-1.73 0-3.3.91-4.95 1.25-1.17-.08-2.57-1.08-4.56-1.18-8.22.42-9.33 11.7-2.05 19.1a3.34 3.34 0 0 0 2.41 1.07c.76-.04 1.5-.22 2.18-.55a5.83 5.83 0 0 1 4.8 0c.67.31 1.4.49 2.13.5a3.36 3.36 0 0 0 2.43-1.03 14.78 14.78 0 0 0 3.76-6.01 5.86 5.86 0 0 1-3.7-5.04 5.8 5.8 0 0 1 2.99-5.47 6.46 6.46 0 0 0-5.05-2.65h-.39Z"></path></svg>