<svg xmlns="http://www.w3.org/2000/svg" fill="none" viewBox="0 0 18 19" width="18" height="18">
  <path fill="#fff" fill-rule="evenodd" d="M11 3.46V0H0v9.62l2.77 2.07.71-.71L1 9.12V1h9v3.46l1-1ZM.15 17.15l17-17 .7.7-17 17-.7-.7ZM5.5 4.25l-1.38.8v1.59l1.38.8 1.38-.8V5.05l-1.38-.8Zm.38 1.81-.38.22-.38-.22v-.44l.38-.22.38.22v.44Zm.6-3.91 1.71 1 .98 1.71v.43l-1 1V5.13l-.71-1.24-1.24-.72H4.78l-1.24.72-.71 1.24v1.43l.71 1.24 1.24.76H5.9l-1 1h-.42l-1.71-1-1-1.7v-2l1-1.71 1.71-1h2Zm9.81 3.1-1 1H17V8h-3.46L12 9.54v7.84l-4-3v-.84l-1 1v.34L12.5 19l5.5-4.12V5.25h-1.71Zm.71 9.13-4 3V9h4v5.38Z" clip-rule="evenodd"></path>
</svg>
