<svg xmlns="http://www.w3.org/2000/svg" fill="none" viewBox="0 0 27 28" width="27" height="27">
  <path fill="#fff" d="M14.83 27.33V17h3.06l.36-2.33h-3.42v-3.04a2.5 2.5 0 0 1 2.67-2.67h.93V7.11c-.72-.1-1.44-.15-2.17-.16a3.81 3.81 0 0 0-4.1 4.26v3.46h-3.2V17h3.2v10.33l-.77-.12a13.33 13.33 0 1 1 4.16 0l-.72.12ZM13.5 2a12 12 0 0 0-2.67 23.7v-7.37h-3.2v-5h3.2v-2.12a5.12 5.12 0 0 1 5.44-5.6c1 .01 1.98.1 2.96.26l.55.09v4.35H17.5c-.95 0-1.33.42-1.33 1.33v1.7h3.6l-.76 5h-2.84v7.35A12 12 0 0 0 13.5 2Z"></path>
</svg>