<svg xmlns="http://www.w3.org/2000/svg" viewBox="0 0 27 28" width="27" height="27"><path fill="#fff" fill-rule="evenodd" d="M19.83.67H7.17a7.01 7.01 0 0 0-7 7v12.66a7.01 7.01 0 0 0 7 7h12.66a7.01 7.01 0 0 0 7-7V7.67a7.01 7.01 0 0 0-7-7Zm5.67 19.66A5.68 5.68 0 0 1 19.83 26H7.17a5.68 5.68 0 0 1-5.67-5.67V7.67A5.68 5.68 0 0 1 7.17 2h12.66a5.68 5.68 0 0 1 5.67 5.67v12.66ZM13.5 8a6 6 0 1 0 0 12 6 6 0 0 0 0-12Zm0 10.67a4.67 4.67 0 1 1 0-9.34 4.67 4.67 0 0 1 0 9.34Zm7.1-12.62a.65.65 0 0 1 .26-.05h.01a.67.67 0 1 1-.66.67.66.66 0 0 1 .4-.62Z" clip-rule="evenodd"></path></svg>