<svg xmlns="http://www.w3.org/2000/svg" fill="none" viewBox="0 0 376 41" width="184" height="20">
  <path fill="#fff" fill-rule="evenodd" d="m6.4 6.1 2-6.1 1.97 6.1h23.6v10.8H18.3V19h13.6v10.25H17.96l-.03 10.03H5.2l.03-18.53L7.7 18.9v17.9h7.82v-10H29.4v-5.34H15.52v-7.02h15.86V8.53H13.42l-1.84 1.33 1.98 6.09-5.17-3.77-5.2 3.77 1.98-6.1L0 6.1h6.41Zm232.65 12.55c3.36.6 5.86 1.7 7.67 3.36a9.03 9.03 0 0 1 2.94 6.98c0 5.06-3.83 10.95-14.54 10.95-3.71 0-7.25-.77-9.95-2.18-3.3-1.73-5.14-4.28-5.14-7.19V28h10.14v1.12c0 .37.23.72.6.83.98.32 2.5.6 4.37.6 2.8 0 3.97-.31 4.49-.6.2-.11.28-.17.28-.69 0-.51-.08-.6-.17-.66-.29-.2-.98-.52-2.76-.86l-6.92-1.15H230c-3.05-.55-5.4-1.52-7.13-3.02a9.22 9.22 0 0 1-3.19-7.27c0-5.03 3.88-10.89 14.83-10.89 8.05 0 14.14 4.08 14.14 9.49v2.58h-10.09v-1.32c0-.4-.23-.75-.6-.86-.83-.26-2.16-.52-3.85-.52-2.76 0-3.88.4-4.31.63-.26.12-.35.17-.35.6 0 .47.08.54.14.6.38.3 1.24.58 2.6.87l6.86 1.18Zm-16.44 11.92c0 4 5.87 6.79 12.53 6.79 8.42 0 11.96-4 11.99-8.3 0-4.2-2.82-6.79-8.51-7.82l-6.93-1.21c-3.36-.72-4.8-1.52-4.8-4 0-2.58 2.05-3.85 7.22-3.85 3.76 0 7.07 1.1 7.07 2.68h4.91c0-3.85-5.06-6.9-11.55-6.9-8.85 0-12.24 4.17-12.24 8.3 0 4.69 3.39 6.9 8.19 7.76l6.95 1.15c3.62.66 5.06 1.61 5.06 4.08 0 2.68-1.93 3.88-7.36 3.88-3.88 0-7.55-1.15-7.55-2.56h-4.97ZM143.88 7.56l-.69-1.53h-9.68l-.7 1.53-12.5 28.07-1.6 3.65h11.47l.68-1.55 2.53-5.75h9.92l2.52 5.75.7 1.55h11.52l-1.61-3.65-12.56-28.07Zm4.28 29.14-3.22-7.3h-13.27l-3.22 7.3h-5.78l12.5-28.1h6.35l12.5 28.1h-5.86Zm-10.03-23.17-4.68 10.78h9.68l-4.68-10.78h-.32Zm-1.55 9.14 1.72-3.93 1.73 3.93h-3.45ZM38.25 6.07H35.8v33.21h10V6.03h-7.55v.03Zm5.11 30.74h-5.11V8.48h5.11V36.8ZM66.38 5.63c4.37 0 8.19 1.1 11.06 3.2a11.67 11.67 0 0 1 4.89 9.5v2.45H72.4v-2.45c0-1-.34-1.75-1.06-2.35-.86-.72-2.47-1.12-4.65-1.12-2.65 0-4.52.54-5.64 1.72-1.17 1.18-1.75 3.22-1.75 6.06 0 2.82.58 4.86 1.72 6.04 1.15 1.15 3 1.72 5.67 1.72 5.71 0 5.71-2.38 5.71-3.39v-2.47h9.88v2.44c0 3.5-1.66 6.78-4.65 9.17-2.84 2.3-6.75 3.5-11.26 3.5-4.97 0-9.2-1.6-12.3-4.68-3.07-3.07-4.71-7.33-4.71-12.33S51 13.4 54.08 10.32s7.33-4.69 12.3-4.69Zm6.55 8.48a5.32 5.32 0 0 1 1.93 4.22v-.08h5.03c0-6.41-5.84-10.26-13.51-10.26-8.76 0-14.57 5.75-14.57 14.6s5.8 14.6 14.57 14.6c4.02 0 7.38-1.07 9.77-2.97a9.2 9.2 0 0 0 3.74-7.24h-5.06c0 3.82-2.79 5.84-8.13 5.84-6.61 0-9.8-3.1-9.8-10.18 0-7.07 3.19-10.23 9.8-10.23 2.87 0 4.9.58 6.23 1.7Zm37.3-8.05h-2.44v11.38H96.06V6.03h-9.91v33.22h9.91V27.5h11.73v11.75h10.03V6.03h-7.59v.03Zm5.17 30.75h-5.14V25.09H93.68V36.8h-5.03V8.48h5.03v11.38h16.58V8.48h5.14V36.8Zm60.38-30.78h10v20.29c0 4.11-1.18 7.39-3.45 9.71-2.47 2.53-6.18 3.83-11 3.83-4.8 0-8.54-1.3-11.1-3.83-2.41-2.38-3.62-5.71-3.62-9.88V22.4h9.77v3.81c0 1.78.26 2.9.78 3.45.57.6 1.9.91 3.88.91 2 0 3.36-.31 3.96-.91.52-.52.78-1.59.78-3.25V6.03Zm-4.49 31.41c8.71 0 12.02-4.5 12.02-11.06V8.48h-5.1v17.9c0 4.51-1.66 6.6-7.2 6.6-5.55 0-7.13-2.12-7.13-6.8v-1.35h-4.83v1.32c0 6.72 3.62 11.3 12.24 11.3Zm20.09-31.38h-2.44v33.22h27.96V29.17h-18.05V27.7h17.39V17.6h-17.39v-1.47h18.05V6.03h-25.52v.03Zm23.05 7.65H196.4v6.32h17.38v5.23H196.4v6.32h18.02v5.23h-23.05V8.48h23.07v5.23h-.02Zm46.34 17.76h-7.1v8.04h7.1v-8.04Zm6.96-20.67c3.04-3 7.27-4.62 12.27-4.62 9.4 0 15.72 5.14 15.72 12.81v.95h-6.3V19c0-4.82-3.16-7.27-9.36-7.27-7.42 0-10.9 3.62-10.9 11.38 0 7.73 3.45 11.33 10.9 11.33 6.29 0 9.37-2.36 9.37-7.27v-.92h6.29v.92c0 3.85-1.53 7.12-4.4 9.42-2.81 2.27-6.72 3.45-11.32 3.45-5 0-9.25-1.61-12.27-4.63-3.05-3.04-4.66-7.3-4.66-12.3 0-5 1.61-9.25 4.66-12.3Zm47.33-4.62c-5.03 0-9.31 1.6-12.36 4.62-3.07 3.05-4.68 7.3-4.68 12.3 0 5.03 1.6 9.29 4.68 12.3 3.05 3.02 7.33 4.63 12.36 4.63 10.37 0 17.1-6.64 17.1-16.93 0-10.28-6.7-16.92-17.1-16.92Zm0 28.25c-7.62 0-11-3.51-11-11.33 0-7.76 3.5-11.38 11-11.38 7.53 0 11.03 3.62 11.03 11.38.03 7.73-3.47 11.33-11.03 11.33Zm42.87-8.91 9.28-18.88h7.5v32.9h-5.75V19.43l.18-4.11-1.78 4.22-8.97 18.05h-6.6l-8.97-18.05-1.79-4.22.18 4.1v20.12h-5.78V6.64h7.53l.09.17 9.25 18.7 2.87 6.56 2.76-6.55Z" clip-rule="evenodd"></path>
</svg>