<svg xmlns="http://www.w3.org/2000/svg" fill="none" viewBox="0 0 25 28" width="27" height="27"><path fill="#fff" d="M23.34 12.5 18.27 9.6h-.09L3.14 1.07A2.35 2.35 0 0 0 1.98.72c-.34-.01-.67.1-.92.33H.98c-.33.42-.5.94-.47 1.47v22.92A1.95 1.95 0 0 0 1 26.89a1.33 1.33 0 0 0 .99.42c.41-.02.82-.14 1.17-.35L18.2 18.4h.1l5.06-2.88a1.57 1.57 0 0 0-.01-3.03ZM2.46 2.16l14.73 8.38-3.29 3.29L2.06 2c.14.03.28.08.4.16Zm-.63 22.15V3.67l10.34 10.32L1.83 24.32Zm.64 1.5c-.13.08-.27.14-.42.17l11.84-11.84 3.3 3.3-14.72 8.38Zm20.2-11.49-4.28 2.44-2.77-2.76 2.77-2.77 4.3 2.44c.14.09.28.2.41.3-.1.16-.26.28-.43.35Z"></path></svg>