<svg xmlns="http://www.w3.org/2000/svg" viewBox="0 0 32 24" width="27" height="27"><path fill="#fff" d="M11.69 23.7c-3.1 0-6.14-.89-8.75-2.57L.5 19.56l2.88.35c2.16.25 4.35-.18 6.25-1.23a6.12 6.12 0 0 1-4-4l-.34-1.07.58.11a6.16 6.16 0 0 1-2.2-4.7V7.87l1 .5A6.16 6.16 0 0 1 4.55 2l.48-.84.62.75c2.48 3.05 6.06 4.99 9.97 5.41V6.8a6.15 6.15 0 0 1 10.35-4.47c1.02-.24 2-.63 2.92-1.17l1.52-.9-.55 1.67a5.59 5.59 0 0 1-.79 1.6l.63-.25 2.1-.93-1.34 1.92c-.73 1.06-1.63 2-2.67 2.78v.4a16.06 16.06 0 0 1-16.1 16.24Zm-5.72-2.47A14.88 14.88 0 0 0 26.54 7.47V6.43l.3-.22c.4-.29.77-.6 1.13-.94-.36.08-.72.13-1.08.17l-3.1.37 2.67-1.6c.43-.26.81-.58 1.15-.96-.57.21-1.16.37-1.75.48l-.36.08-.25-.28a4.81 4.81 0 0 0-8.19 4.4l.2.86h-.88A16.25 16.25 0 0 1 5.3 3.63a4.99 4.99 0 0 0 .32 3.8c.38.7.92 1.3 1.57 1.73l1.94 1.33H6.8a6.43 6.43 0 0 1-1.68-.29 4.81 4.81 0 0 0 3.73 3.72l2.76.55-2.67.74c-.51.14-1.05.21-1.58.22a4.83 4.83 0 0 0 4 2.37h1.88l-1.48 1.16a11.41 11.41 0 0 1-5.8 2.27Z"></path></svg>